<?xml version="1.0" standalone="no"?>
<!DOCTYPE svg PUBLIC "-//W3C//DTD SVG 20010904//EN"
 "http://www.w3.org/TR/2001/REC-SVG-20010904/DTD/svg10.dtd">
<svg version="1.0" xmlns="http://www.w3.org/2000/svg"
 width="1200.000000pt" height="740.000000pt" viewBox="0 0 1200.000000 740.000000"
 preserveAspectRatio="xMidYMid meet">
<metadata>
Created by potrace 1.16, written by Peter Selinger 2001-2019
</metadata>
<g transform="translate(0.000000,740.000000) scale(0.100000,-0.100000)"
fill="#000000" stroke="none">
<path d="M1290 7384 c0 -8 5 -12 10 -9 7 5 8 -23 4 -87 -4 -51 -7 -106 -7
-123 1 -16 -1 -24 -4 -17 -3 8 -12 -1 -24 -23 -38 -69 -56 -80 -139 -80 -64 0
-80 4 -109 25 -18 14 -37 34 -41 45 -7 17 -9 15 -9 -12 -1 -17 4 -35 9 -38 6
-3 10 -18 10 -33 1 -30 33 -73 67 -91 32 -16 137 -13 180 5 49 21 104 91 121
152 25 91 -10 302 -49 302 -11 0 -19 -7 -19 -16z"/>
<path d="M1428 7375 c2 -14 8 -28 13 -31 5 -3 9 -60 9 -127 0 -122 -12 -194
-43 -251 -24 -45 -127 -160 -167 -187 -92 -62 -92 -59 -4 -56 50 1 91 9 113
20 19 9 40 17 47 17 8 0 11 6 7 17 -4 11 -3 14 5 9 16 -10 15 -65 -2 -98 -21
-40 -7 -34 50 20 27 26 71 65 97 87 60 50 57 45 119 130 29 39 57 75 63 82 79
93 149 224 143 272 -3 23 -6 20 -30 -29 -15 -30 -49 -77 -75 -105 -27 -27 -64
-70 -83 -94 -18 -24 -48 -50 -67 -57 -35 -15 -54 -18 -38 -6 28 20 74 188 74
272 1 103 -8 140 -33 140 -20 0 -21 -5 -23 -103 -2 -111 -32 -241 -63 -274 -9
-11 -20 -25 -24 -33 -3 -8 -3 3 0 25 3 22 9 44 12 50 15 24 2 234 -19 303 -10
29 -14 32 -48 32 -35 0 -38 -2 -33 -25z"/>
<path d="M2440 7384 c0 -16 38 -76 52 -82 4 -2 8 -10 8 -19 0 -8 7 -21 15 -29
8 -9 15 -28 15 -44 0 -16 6 -35 13 -42 7 -7 14 -29 16 -48 1 -19 12 -51 24
-70 12 -19 32 -56 44 -82 l22 -47 -25 9 c-14 6 -45 21 -70 35 -24 14 -48 25
-53 25 -5 0 -12 -24 -15 -52 -13 -95 -74 -184 -173 -250 -39 -26 -109 -46 -98
-28 9 14 -6 12 -35 -6 -23 -14 -23 -14 -2 -9 13 4 22 2 22 -4 0 -6 -12 -12
-27 -12 -18 -1 -21 -3 -10 -6 9 -2 32 0 50 6 64 21 213 41 314 41 l101 0 64
60 c69 66 187 149 226 159 23 6 19 10 -40 40 -161 80 -322 260 -373 419 -15
43 -21 52 -41 52 -15 0 -24 -6 -24 -16z"/>
<path d="M2600 7396 c0 -5 16 -43 59 -136 40 -89 173 -206 262 -231 24 -6 87
-12 139 -13 105 -1 122 -7 118 -39 -3 -21 2 -22 92 -28 102 -6 149 -22 230
-77 25 -17 47 -27 48 -21 2 5 -3 28 -12 51 -31 75 -31 232 -1 358 3 14 -8 -1
-25 -33 -39 -73 -78 -117 -102 -117 -15 0 -18 5 -12 23 3 12 11 28 16 35 8 9
3 12 -19 12 -16 0 -33 -4 -39 -8 -5 -5 -40 -22 -79 -38 -61 -25 -82 -29 -165
-29 -118 1 -197 26 -282 91 -62 48 -158 156 -158 178 0 22 33 14 86 -20 91
-60 119 -68 229 -68 112 1 215 30 289 82 l40 27 -65 3 c-35 2 -80 -2 -99 -8
-22 -7 -65 -10 -110 -6 -129 10 -440 18 -440 12z"/>
<path d="M6135 7350 c-44 -11 -124 -48 -140 -64 -8 -8 -20 -16 -27 -19 -10 -3
-10 -9 -1 -25 10 -17 8 -31 -18 -89 -49 -106 -68 -177 -89 -326 -24 -166 -25
-202 -4 -264 26 -80 51 -124 111 -197 55 -66 133 -119 141 -96 2 6 11 10 20
10 10 0 -2 17 -32 48 -124 121 -172 257 -142 397 8 39 12 89 9 112 -3 23 -2
50 2 60 5 10 9 21 9 25 3 19 92 99 131 117 25 12 65 30 90 42 86 39 163 33 98
-8 -97 -61 -195 -176 -241 -283 -60 -136 -18 -338 70 -341 12 0 31 -2 42 -4
10 -2 26 -1 36 3 18 7 17 11 -6 76 -25 72 -31 148 -15 188 12 30 74 98 89 98
7 0 12 4 12 9 0 5 7 12 16 15 12 5 10 -3 -7 -32 -13 -20 -29 -43 -35 -49 -37
-38 -41 -141 -8 -191 19 -28 71 -52 116 -52 39 0 168 39 168 51 0 5 -22 9 -48
9 -31 0 -65 9 -98 25 -56 28 -100 86 -86 112 9 15 10 14 16 -3 3 -11 26 -30
50 -44 44 -24 45 -24 79 -5 39 20 57 61 56 121 -1 68 -21 106 -69 131 -79 42
-153 26 -240 -49 -26 -23 -71 -87 -82 -118 -5 -17 -14 -30 -19 -30 -18 0 -8
86 15 135 26 55 117 155 156 171 14 6 74 9 133 8 l108 -4 -53 43 c-97 79 -189
95 -308 56 -67 -22 -118 -51 -163 -93 -15 -14 -32 -26 -38 -26 -16 0 -10 37
13 77 46 82 95 120 213 164 30 11 55 25 55 30 0 6 -29 9 -72 8 -94 -3 -97 14
-9 47 36 14 67 27 70 29 7 7 -39 4 -74 -5z"/>
<path d="M1922 7228 c-5 -18 -15 -67 -22 -108 -7 -41 -23 -102 -36 -134 -13
-33 -24 -63 -24 -68 0 -5 -21 -50 -46 -101 -57 -114 -139 -230 -216 -303 -32
-30 -58 -58 -58 -61 0 -3 7 0 15 7 8 7 15 9 15 4 0 -5 5 -1 11 9 6 11 17 16
28 12 11 -3 28 4 45 20 15 14 32 23 37 20 5 -4 9 0 9 9 0 8 3 16 8 18 30 13
132 178 132 213 0 9 4 14 9 11 9 -6 19 16 45 107 10 31 14 62 10 69 -4 6 -3 8
3 5 7 -4 13 15 18 51 4 31 10 62 15 67 8 11 24 185 16 185 -2 0 -9 -15 -14
-32z"/>
<path d="M172 7135 c37 -72 68 -180 68 -234 0 -113 -64 -344 -120 -434 -17
-27 -30 -52 -30 -57 0 -5 -4 -10 -9 -12 -5 -1 -25 -24 -45 -51 -25 -33 -36
-57 -36 -82 0 -26 3 -33 15 -29 8 4 15 1 15 -5 0 -7 -7 -28 -15 -48 -10 -24
-15 -71 -15 -152 l0 -116 25 30 c14 17 55 77 91 135 37 58 79 124 95 148 16
23 29 45 29 49 0 4 6 14 14 22 37 43 93 168 120 273 11 42 11 53 -5 89 -11 22
-30 54 -43 70 -36 43 -42 97 -17 164 26 70 28 137 4 156 -15 11 -16 11 -5 -1
6 -8 12 -20 12 -28 0 -8 -12 1 -27 19 -31 36 -100 106 -128 129 -14 12 -12 4
7 -35z"/>
<path d="M0 6765 c0 -191 2 -346 5 -344 17 18 87 160 105 215 37 109 18 278
-41 374 -5 8 -15 26 -22 40 -6 14 -20 34 -29 44 -17 19 -18 4 -18 -329z"/>
<path d="M4624 7028 c-3 -5 -12 -8 -20 -8 -9 0 -22 -7 -31 -15 -8 -8 -19 -12
-25 -9 -6 4 -8 2 -5 -3 4 -6 -3 -19 -15 -29 -30 -28 -138 -203 -138 -225 0 -5
-9 -29 -21 -53 -11 -25 -26 -86 -34 -138 -11 -83 -11 -96 3 -118 9 -14 17 -31
18 -38 1 -7 20 -33 41 -58 21 -25 51 -62 66 -82 53 -70 80 -92 149 -118 76
-30 100 -50 73 -60 -28 -11 -110 4 -151 27 -125 73 -287 236 -343 347 -26 51
-35 51 -21 1 6 -18 10 -58 10 -87 0 -72 24 -114 122 -214 117 -119 133 -129
308 -177 25 -7 53 -17 62 -22 10 -5 34 -9 53 -9 19 0 62 -11 94 -24 59 -24
182 -43 201 -31 10 6 -91 75 -109 75 -4 0 -16 7 -26 15 -11 8 -54 39 -95 69
-68 49 -160 143 -152 154 2 3 0 8 -5 11 -14 10 -53 70 -53 81 0 5 -5 10 -12
10 -6 0 -9 3 -5 6 7 8 64 -26 101 -61 36 -33 108 -69 171 -84 27 -7 54 -16 60
-20 15 -12 54 -20 59 -12 7 10 -153 161 -170 161 -13 0 -124 123 -124 137 0
19 42 -10 140 -97 100 -87 127 -103 180 -107 l45 -2 -62 35 c-35 19 -74 50
-88 68 -14 18 -45 43 -70 56 -25 13 -62 39 -81 58 l-37 36 6 73 c8 106 42 170
126 237 83 66 123 86 175 86 80 0 88 -34 11 -42 -90 -11 -153 -80 -174 -195
-12 -60 -5 -114 20 -164 22 -45 35 -55 81 -63 34 -6 108 17 108 34 0 3 -20 11
-45 18 -67 18 -84 39 -75 95 12 81 70 135 62 59 -5 -46 6 -72 31 -72 26 0 157
133 157 160 0 10 5 22 12 26 7 5 5 11 -8 21 -15 11 -16 15 -6 22 12 7 12 12 0
32 -7 13 -17 27 -23 31 -6 4 -6 8 -1 8 23 0 -54 64 -103 86 -100 45 -153 28
-264 -81 -37 -37 -70 -65 -74 -62 -3 4 0 14 8 23 7 9 14 22 15 29 5 36 76 111
163 172 l46 33 -33 0 c-45 0 -92 -21 -130 -60 -31 -31 -101 -156 -117 -210
-21 -71 -95 -230 -107 -230 -5 0 -8 -7 -8 -15 0 -8 -6 -12 -14 -9 -7 3 -21 -2
-30 -11 -20 -21 -21 -9 -2 64 26 100 46 196 46 218 0 12 5 25 10 28 6 3 10 16
10 29 0 12 5 27 10 32 6 6 13 21 15 35 3 13 9 25 15 27 5 2 10 9 10 16 0 7 15
29 34 49 33 36 33 37 9 35 -14 -2 -27 -6 -29 -10z"/>
<path d="M4106 6898 c-3 -13 -6 -39 -7 -58 0 -28 -2 -31 -9 -15 -6 17 -9 13
-14 -20 -8 -45 -21 -118 -42 -220 -8 -38 -14 -107 -14 -152 0 -48 -4 -83 -10
-83 -16 0 -111 65 -172 116 -31 27 -65 56 -75 64 -11 8 -43 41 -71 73 -29 31
-52 54 -52 51 0 -7 65 -85 118 -142 20 -21 29 -39 25 -49 -4 -11 -2 -14 5 -9
7 4 12 3 12 -2 0 -11 142 -122 180 -142 14 -7 35 -21 46 -32 l22 -20 10 34 c5
18 21 71 35 118 15 47 29 102 32 122 3 23 14 42 25 48 11 6 17 16 14 25 -4 8
-9 13 -13 11 -17 -11 -34 117 -27 209 4 58 4 95 -2 95 -5 0 -12 -10 -16 -22z"/>
<path d="M5663 6538 c-21 -57 -34 -116 -41 -188 -12 -114 -41 -209 -99 -322
-30 -59 -90 -127 -111 -128 -4 0 -38 -9 -77 -20 -38 -11 -86 -20 -105 -21 -34
-2 -34 -2 -5 -6 91 -13 193 -51 258 -96 22 -15 37 3 37 46 0 33 73 187 106
222 14 15 34 25 51 25 22 0 25 2 13 10 -10 7 -11 10 -2 10 16 0 19 -10 27 -83
4 -39 13 -64 26 -75 10 -9 19 -24 19 -33 0 -9 9 -27 21 -40 19 -21 20 -34 17
-122 l-3 -97 57 0 c55 0 58 1 64 28 11 46 44 102 86 148 l40 43 -33 48 c-18
26 -39 54 -46 61 -24 24 -109 176 -120 214 -12 42 -2 58 23 34 8 -9 19 -16 24
-16 5 0 17 -3 27 -6 10 -4 -9 20 -42 52 -33 32 -67 68 -75 79 -36 47 -73 150
-91 249 -6 36 -12 66 -13 66 -1 0 -16 -37 -33 -82z"/>
<path d="M460 6458 c-69 -271 -180 -463 -345 -596 -52 -42 -31 -41 32 2 81 56
155 93 209 105 48 12 50 13 46 41 -6 41 15 46 74 21 56 -25 68 -26 85 -4 10
11 10 14 2 9 -20 -11 -16 55 4 83 38 55 109 111 148 116 30 4 -30 83 -95 125
-27 17 -71 56 -99 86 l-50 54 -11 -42z"/>
<path d="M5213 6462 c-52 -16 -53 -17 -53 -57 0 -22 -4 -57 -9 -77 -8 -32 -6
-36 10 -33 52 10 98 54 99 95 0 14 7 36 15 50 26 46 21 48 -62 22z"/>
<path d="M2900 6207 c0 -1 25 -20 55 -42 60 -44 70 -65 28 -58 -25 4 -23 2 11
-17 24 -13 49 -20 65 -17 39 8 151 50 146 55 -3 3 -24 9 -47 13 -74 14 -172
41 -201 55 -26 13 -57 19 -57 11z"/>
<path d="M1625 6130 c-11 -4 -47 -16 -80 -25 -76 -22 -135 -46 -135 -57 0 -4
-6 -8 -12 -8 -7 0 -34 -24 -60 -54 -58 -66 -113 -96 -174 -96 -51 0 -50 4 -20
-75 21 -55 20 -157 -3 -246 -33 -130 -134 -278 -255 -377 -93 -75 -124 -94
-150 -89 -19 3 -19 4 7 15 16 7 34 18 40 25 164 178 194 218 206 282 14 75
-10 165 -56 213 -7 7 -13 17 -13 21 0 7 -49 56 -99 101 -22 20 -92 72 -112 85
-72 44 -72 38 0 -31 74 -70 101 -107 87 -121 -3 -3 -21 9 -40 28 -36 34 -139
81 -115 53 6 -8 9 -14 5 -14 -10 0 73 -111 114 -152 21 -21 41 -50 44 -65 4
-17 3 -23 -2 -15 -6 9 -14 1 -25 -30 -22 -57 -126 -171 -180 -197 -55 -27 -80
-26 -112 2 -23 20 -24 25 -15 59 8 29 20 41 53 57 24 12 60 21 80 21 31 0 38
4 43 26 20 79 -44 106 -138 59 -78 -39 -138 -101 -138 -143 0 -109 146 -178
262 -124 92 43 268 255 268 322 0 22 23 27 37 8 14 -21 15 -64 1 -79 -7 -8
-22 -30 -32 -49 -33 -59 -150 -219 -162 -219 -6 -1 -20 -13 -30 -27 -26 -35
-140 -91 -201 -100 -69 -9 -124 17 -209 100 -37 36 -71 66 -76 66 -4 0 6 -22
22 -49 17 -26 30 -53 30 -59 0 -15 122 -122 140 -122 8 0 49 -11 90 -24 73
-24 74 -24 48 -37 -15 -6 -25 -16 -22 -20 4 -8 -14 -14 -119 -40 -68 -17 -52
-22 29 -9 38 6 112 13 164 15 100 4 102 5 89 55 -3 10 10 17 49 24 28 5 52 13
52 17 0 5 6 9 14 9 18 0 147 128 213 210 80 99 91 115 110 156 10 21 24 45 31
52 6 7 12 26 12 41 0 15 6 33 13 40 16 16 16 233 -1 253 -16 19 -5 54 23 72
13 9 48 16 77 17 46 2 58 -2 82 -24 16 -15 26 -33 23 -40 -3 -8 0 -14 6 -14 7
0 19 -4 28 -7 11 -5 25 8 49 46 34 53 206 231 235 241 19 8 19 21 -1 41 -17
17 -57 20 -89 6z"/>
<path d="M6622 6025 c-28 -21 -23 -29 41 -62 29 -14 54 -29 57 -32 3 -4 34
-25 70 -48 72 -46 107 -51 123 -16 5 12 18 25 28 28 9 3 34 21 55 40 49 45 37
60 -54 69 -37 4 -98 11 -137 17 -145 21 -159 21 -183 4z"/>
<path d="M2671 5919 c-30 -15 -57 -31 -60 -36 -3 -4 -12 -9 -19 -11 -24 -5
-70 -44 -75 -63 -3 -10 -13 -22 -24 -26 -10 -4 -31 -20 -48 -35 -16 -15 -35
-28 -40 -28 -11 0 -64 -54 -80 -80 -5 -8 5 -3 22 11 32 27 129 76 197 100 22
8 42 23 47 36 9 24 38 43 67 43 13 0 28 17 47 55 15 31 26 57 24 58 -2 2 -28
-9 -58 -24z"/>
<path d="M2850 5745 c-74 -14 -123 -31 -160 -54 -30 -19 -70 -57 -70 -67 0 -4
-7 -16 -17 -26 -27 -31 2 -21 104 36 102 56 180 83 209 72 22 -8 13 -17 -56
-52 -59 -30 -151 -97 -187 -135 -32 -35 -83 -143 -83 -177 0 -16 9 -55 21 -88
11 -32 23 -67 26 -76 3 -10 10 -18 15 -18 5 0 21 -14 36 -32 15 -17 55 -44 89
-60 73 -33 73 -33 73 -13 0 8 -25 33 -56 56 -80 59 -108 140 -92 263 16 115
76 198 174 242 172 76 324 -35 324 -236 0 -81 -15 -125 -59 -171 -28 -29 -35
-31 -76 -26 -51 5 -87 32 -111 82 -13 26 -13 28 0 12 24 -31 75 -14 120 41 33
40 37 51 31 81 -17 88 -68 127 -160 119 -68 -6 -101 -34 -145 -122 -30 -58
-37 -110 -21 -150 7 -18 8 -18 14 5 4 13 7 37 7 52 0 26 21 77 41 101 6 6 17
20 25 31 15 19 15 19 9 -5 -3 -14 -10 -39 -15 -57 -8 -33 -2 -124 9 -133 4 -3
19 -22 35 -42 15 -20 41 -41 58 -47 61 -21 162 -8 196 26 7 7 19 13 26 13 7 0
23 21 37 48 19 38 24 62 24 127 0 72 -4 87 -34 147 -19 37 -57 89 -83 115 -26
26 -48 51 -48 55 0 13 53 8 80 -7 42 -24 45 -16 4 11 -97 66 -188 83 -314 59z"/>
<path d="M2543 5704 c-7 -7 -13 -19 -13 -25 0 -7 -3 -10 -6 -6 -18 18 -90 -98
-98 -158 -4 -27 -9 -66 -12 -86 -5 -34 -4 -36 19 -32 37 7 70 74 84 170 7 45
19 96 28 114 18 34 17 44 -2 23z"/>
<path d="M4175 5703 c9 -24 24 -104 23 -123 -1 -8 0 -26 1 -40 1 -20 3 -22 11
-10 7 11 10 6 10 -20 0 -46 -14 -92 -35 -117 -10 -11 -29 -47 -44 -80 -42 -96
-88 -159 -172 -237 -58 -54 -79 -80 -79 -98 0 -52 -61 -191 -112 -256 l-29
-37 23 -8 c108 -39 264 -152 342 -248 37 -46 38 -46 110 -52 82 -6 246 -60
332 -108 79 -45 168 -145 210 -236 20 -43 39 -85 44 -94 5 -9 11 -37 15 -63 5
-34 12 -46 24 -46 16 0 18 14 17 138 -1 129 1 140 26 195 15 32 41 76 58 97
16 21 30 40 30 44 0 9 -63 -6 -88 -22 -17 -11 -45 -14 -120 -10 -80 4 -112 11
-182 39 -146 59 -281 163 -326 250 -79 158 -68 346 33 542 55 106 173 238 181
202 2 -10 -1 -21 -7 -23 -6 -2 -11 -11 -11 -21 0 -9 -4 -21 -9 -27 -17 -18
-41 -109 -41 -154 0 -65 14 -109 78 -241 23 -48 49 -92 57 -99 8 -7 15 -19 15
-26 0 -8 3 -14 8 -14 4 0 20 -20 35 -45 16 -25 33 -45 39 -45 5 0 7 -4 4 -8
-3 -5 4 -15 15 -22 10 -8 19 -21 19 -30 0 -9 16 -30 35 -49 19 -18 35 -39 35
-47 0 -17 102 -69 153 -77 20 -3 37 -4 37 -2 0 2 -24 26 -52 52 -160 145 -248
238 -248 260 0 23 1 23 25 7 14 -9 28 -15 30 -12 8 8 -7 68 -15 63 -12 -7 -61
101 -54 119 3 9 1 16 -6 16 -8 0 -10 24 -5 93 9 118 48 235 91 272 16 14 74
124 74 141 0 65 -148 -94 -206 -222 -15 -32 -18 -66 -19 -186 0 -81 -3 -150
-7 -153 -12 -12 -36 39 -46 95 -13 73 -16 403 -4 427 11 21 51 138 59 171 5
19 1 22 -28 22 -36 1 -127 21 -171 39 -32 12 -110 62 -120 76 -40 56 -78 85
-63 48z m192 -270 c47 -47 53 -95 12 -108 -10 -4 -19 -11 -19 -16 0 -6 -4 -8
-8 -5 -4 2 -14 -8 -21 -24 -7 -16 -25 -43 -41 -60 -16 -17 -35 -47 -42 -66 -6
-19 -15 -34 -19 -34 -4 0 -13 -20 -20 -45 -7 -25 -16 -45 -19 -45 -21 0 -73
160 -64 196 11 45 42 110 59 124 8 7 15 21 15 32 0 10 7 21 15 24 8 4 15 12
15 19 0 14 61 33 96 30 11 -1 30 -11 41 -22z"/>
<path d="M3386 5685 c4 -16 7 -91 8 -165 1 -105 -3 -145 -16 -180 -21 -57 -34
-165 -19 -155 6 3 9 10 6 15 -3 5 3 13 13 19 27 14 69 102 83 171 19 98 -4
226 -45 252 -6 4 -16 22 -23 40 -13 32 -13 32 -7 3z"/>
<path d="M401 5663 c-39 -5 -48 -12 -85 -72 -21 -33 -27 -53 -24 -81 2 -21 0
-36 -3 -34 -8 4 -20 -38 -14 -45 3 -2 21 15 41 38 22 25 64 56 107 77 72 37
116 41 200 19 55 -15 17 22 -61 58 -86 40 -112 46 -161 40z"/>
<path d="M5880 5545 c-18 -22 -7 -179 19 -275 29 -104 133 -331 147 -318 5 6
-25 101 -34 107 -7 6 -19 41 -57 173 -10 36 -45 284 -45 323 0 10 -18 5 -30
-10z"/>
<path d="M6016 5440 c-8 -30 6 -128 36 -250 22 -91 29 -233 11 -251 -14 -14
29 -92 82 -144 22 -23 46 -53 54 -67 15 -30 78 -94 85 -87 3 2 -15 26 -40 53
-24 27 -44 54 -44 60 0 7 3 7 8 1 4 -6 21 -17 37 -25 17 -8 37 -19 45 -26 32
-26 92 -54 101 -48 6 3 7 19 4 36 -7 30 -35 90 -35 74 0 -5 -6 -4 -12 1 -7 6
-24 13 -38 16 -46 11 -120 66 -137 101 -9 20 -20 33 -24 30 -8 -4 -21 52 -39
166 -5 36 -12 74 -15 85 -27 112 -35 138 -46 151 -7 8 -15 45 -19 82 -5 52 -8
61 -14 42z"/>
<path d="M4932 5305 c-42 -18 -92 -54 -92 -65 0 -5 9 -10 19 -12 18 -3 18 -6
6 -38 -7 -19 -25 -66 -40 -105 -41 -107 -48 -169 -26 -219 19 -44 76 -100 120
-118 40 -17 151 -11 189 9 34 19 39 28 20 36 -18 6 -58 -10 -58 -23 0 -7 -13
-9 -37 -4 -52 9 -103 34 -103 49 0 7 -6 15 -14 18 -29 12 -63 204 -45 255 6
18 9 42 6 53 -7 26 28 67 92 104 51 30 63 45 36 45 -18 0 -20 16 -2 23 6 3 1
6 -13 6 -14 0 -40 -6 -58 -14z"/>
<path d="M3514 5206 c-29 -19 -130 -48 -156 -44 -18 2 -26 -5 -40 -34 -10 -20
-34 -54 -54 -74 -37 -37 -124 -84 -156 -84 -10 0 -42 -16 -72 -35 -30 -19 -61
-35 -67 -35 -7 0 -10 -2 -8 -4 8 -8 196 22 219 34 18 10 20 14 9 22 -11 7 -9
8 7 6 17 -2 35 8 101 62 7 6 18 10 26 10 17 0 113 74 193 147 35 32 34 53 -2
29z"/>
<path d="M1420 5168 c-1 -16 -61 -83 -84 -91 -9 -4 -16 -10 -16 -15 0 -5 -18
-17 -40 -27 -22 -10 -40 -22 -40 -27 0 -4 -5 -8 -11 -8 -5 0 -36 -17 -67 -39
-31 -21 -79 -48 -107 -61 -27 -12 -70 -41 -95 -65 -72 -68 -281 -183 -402
-222 -38 -12 -58 -23 -58 -34 0 -29 192 -14 260 21 19 9 49 23 65 30 17 7 35
15 41 19 38 22 146 94 181 121 22 17 58 40 80 51 55 28 77 42 86 57 4 6 22 19
40 28 18 9 41 25 52 35 27 24 115 69 135 68 37 -1 82 -107 82 -196 0 -13 3
-21 7 -20 3 2 22 11 43 22 l36 18 85 -41 c46 -23 104 -57 128 -76 24 -19 45
-34 46 -32 2 1 -2 17 -8 34 -8 24 -25 37 -77 63 -98 48 -253 206 -305 311 -38
77 -57 102 -57 76z"/>
<path d="M3775 4958 c-60 -20 -96 -42 -101 -62 -3 -12 -29 -40 -57 -64 -154
-128 -348 -162 -540 -94 -46 16 -50 16 -62 -1 -7 -9 -15 -17 -19 -17 -4 0 -16
-9 -28 -20 l-22 -20 55 0 c30 0 60 5 66 11 7 7 27 9 50 5 215 -32 326 -37 346
-17 6 6 21 11 33 11 12 0 27 7 34 15 7 8 18 15 24 15 7 0 23 11 36 25 13 14
30 25 38 25 8 0 12 6 8 15 -3 8 -1 25 4 37 l9 23 0 -22 c1 -28 21 -31 21 -3 0
23 42 65 89 87 45 22 87 63 63 62 -9 -1 -30 -6 -47 -11z"/>
<path d="M5646 4835 c-10 -15 -15 -34 -11 -43 5 -13 8 -14 14 -3 14 22 33
-104 25 -171 -7 -61 -47 -193 -65 -212 -19 -20 -7 -26 51 -26 41 0 72 -6 97
-20 21 -11 46 -20 56 -20 10 0 20 -6 23 -14 3 -8 20 -17 37 -20 18 -3 44 -19
59 -34 18 -19 45 -33 85 -42 54 -13 107 -45 158 -95 28 -27 115 -160 115 -175
0 -6 6 -10 13 -8 7 3 15 33 20 69 8 66 32 141 86 266 28 65 41 149 26 165 -3
3 -23 0 -45 -5 -27 -8 -59 -8 -107 0 -106 17 -283 67 -338 96 -54 28 -173 139
-202 187 -9 17 -21 30 -25 30 -4 0 -8 6 -8 13 0 6 -11 29 -23 50 l-24 39 -17
-27z"/>
<path d="M1891 4690 c0 -9 29 -47 65 -85 91 -96 186 -220 231 -302 37 -67 74
-113 91 -113 11 0 52 -47 52 -59 0 -5 -6 -12 -12 -15 -10 -5 -10 -7 0 -12 6
-3 12 -19 12 -35 0 -16 5 -29 10 -29 6 0 10 -7 10 -16 0 -8 4 -13 9 -10 14 9
22 -23 15 -60 -5 -27 -3 -34 10 -34 9 0 16 -8 16 -20 0 -11 -4 -20 -10 -20 -5
0 -10 -9 -10 -20 0 -11 4 -20 9 -20 11 0 23 -92 15 -113 -3 -8 -17 -18 -31
-22 -23 -5 -25 -10 -20 -45 4 -31 -2 -53 -34 -116 -21 -42 -39 -86 -39 -98 0
-11 -6 -38 -14 -61 -8 -22 -17 -60 -21 -85 -7 -57 -61 -130 -131 -179 -81 -57
-209 -201 -179 -201 3 0 34 20 69 44 36 24 67 42 70 39 2 -3 39 29 80 71 55
55 76 83 76 102 0 14 4 23 10 19 12 -7 34 28 53 85 16 47 60 144 77 170 11 17
20 35 46 100 10 25 31 66 46 91 15 25 28 51 28 57 0 26 41 119 53 119 7 0 13
-17 14 -41 6 -117 91 -525 93 -445 0 9 17 49 37 90 45 89 49 159 15 231 -12
24 -25 65 -28 91 l-7 47 49 2 c27 0 56 1 65 0 9 -1 21 9 27 22 9 20 8 23 -6
22 -18 -1 -18 6 -5 64 6 25 15 36 30 38 17 3 20 -1 16 -17 -6 -25 3 -27 24 -5
9 8 16 30 15 47 -1 24 2 28 9 17 8 -11 9 -1 6 34 -5 48 0 74 29 174 21 69 16
79 -42 80 -44 1 -220 60 -251 84 -8 6 -10 4 -7 -9 3 -10 19 -26 36 -36 30 -17
30 -19 12 -31 -14 -10 -33 -11 -74 -5 -136 21 -152 22 -158 12 -4 -6 -29 -15
-55 -21 -37 -7 -51 -7 -61 3 -8 9 -18 10 -29 4 -13 -8 -18 -4 -23 15 -3 14
-14 28 -24 31 -10 3 -25 23 -34 45 -8 21 -20 41 -26 45 -5 3 -10 20 -10 36 0
17 -6 32 -15 35 -8 3 -31 28 -51 55 -35 48 -85 85 -98 72 -3 -4 -6 -1 -6 6 0
22 -52 61 -81 61 -18 0 -29 6 -32 18 -4 13 -5 13 -6 2z"/>
<path d="M2800 4638 c-19 -6 -62 -13 -95 -17 -53 -6 -56 -7 -30 -14 17 -4 69
-10 117 -12 79 -4 97 -10 183 -51 52 -26 95 -50 95 -55 0 -5 10 -9 23 -9 18 0
19 -2 7 -10 -12 -8 -11 -10 7 -10 12 0 34 5 50 11 22 8 24 12 13 19 -8 6 -27
10 -42 10 -32 0 -184 77 -236 120 -40 33 -40 33 -92 18z"/>
<path d="M27 4382 c-3 -4 8 -21 24 -36 76 -72 164 -229 186 -330 28 -134 34
-201 29 -299 -7 -117 -48 -247 -107 -344 -22 -35 -39 -66 -39 -69 0 -5 -6 -14
-78 -121 -34 -51 -42 -70 -42 -109 l0 -47 41 6 c22 3 48 12 58 21 10 9 27 16
39 16 12 0 22 4 22 9 0 5 18 28 41 52 22 24 50 62 61 84 11 22 29 51 39 64 17
21 41 87 44 116 1 6 6 19 12 30 19 35 41 164 53 310 7 77 13 142 16 144 2 2
-1 12 -7 22 -7 13 -6 19 1 19 6 0 13 -7 16 -15 4 -8 10 -13 14 -10 14 9 20
-24 30 -178 9 -146 47 -434 71 -548 13 -60 6 -192 -12 -232 -8 -19 -9 -37 -1
-67 6 -25 6 -42 0 -46 -5 -3 -7 -12 -4 -19 6 -17 -26 -29 -54 -20 -28 9 -55
-14 -58 -50 -5 -56 19 -60 398 -60 201 -1 367 -6 415 -13 44 -6 109 -14 145
-17 36 -3 109 -13 162 -21 54 -8 100 -14 103 -14 14 0 2 19 -20 34 -18 12 -59
17 -157 21 -143 6 -488 43 -525 56 -21 8 -23 15 -23 84 0 41 4 75 9 75 16 0
17 45 5 165 -9 78 -11 178 -7 286 5 144 3 172 -12 220 l-19 54 -8 -35 c-21
-83 -93 -289 -117 -335 -40 -76 -116 -148 -168 -159 l-30 -7 8 48 c7 47 -1
159 -21 278 -35 215 -74 611 -74 745 0 59 5 94 16 114 15 30 15 30 -26 68 -62
57 -69 52 -61 -39 4 -43 10 -92 15 -109 4 -16 4 -68 -1 -115 -4 -46 -8 -87 -8
-91 -1 -5 -6 -8 -11 -8 -13 0 -41 65 -60 135 -26 99 -46 132 -141 225 -43 41
-65 56 -90 58 -19 1 -46 5 -61 8 -14 3 -29 1 -31 -4z"/>
<path d="M5327 4243 c11 -4 -19 -35 -185 -190 -19 -18 -41 -33 -49 -33 -7 0
-13 -3 -13 -7 0 -5 -13 -22 -29 -38 l-28 -31 73 3 c73 2 74 2 61 -20 -6 -12
-15 -24 -19 -27 -7 -6 -28 -60 -54 -140 -33 -105 -15 -358 38 -530 28 -90 19
-72 79 -165 27 -43 62 -114 74 -154 8 -27 10 -30 60 -88 20 -23 34 -47 30 -53
-3 -6 0 -7 9 -4 20 8 20 8 -8 52 -24 36 -43 88 -66 180 -7 26 -16 42 -23 39
-15 -5 -67 97 -101 199 -54 163 -64 305 -35 524 9 70 37 179 49 190 3 3 21 28
40 55 43 62 49 69 91 94 25 16 29 21 15 21 -11 0 -16 3 -12 8 4 4 12 7 17 7
10 0 28 28 48 73 6 12 21 27 33 32 17 6 7 9 -42 9 -36 -1 -60 -3 -53 -6z"/>
<path d="M1570 4225 c-8 -2 -31 -6 -50 -9 -19 -3 -51 -16 -70 -28 -19 -12 -37
-23 -40 -23 -27 -8 -100 -48 -114 -64 -17 -19 -16 -19 31 -29 29 -6 68 -7 98
-2 28 5 75 9 105 9 49 1 53 3 39 16 -17 18 -97 26 -102 11 -6 -17 -27 5 -27
27 0 30 11 43 42 50 39 10 194 -8 289 -34 142 -38 189 -105 211 -304 9 -84 9
-119 -5 -213 -19 -126 -30 -154 -90 -220 -49 -53 -106 -81 -162 -82 -64 -1
-22 -17 50 -19 96 -3 148 37 207 159 50 105 51 272 0 495 -11 51 -74 174 -100
198 -37 33 -255 77 -312 62z"/>
<path d="M5540 4199 c-36 -3 -74 -10 -85 -15 -31 -14 -95 -58 -95 -66 0 -4 28
-5 63 -1 45 4 72 1 101 -11 21 -9 40 -16 41 -16 1 0 24 25 51 57 26 31 42 54
34 51 -8 -3 -22 -2 -30 1 -8 4 -44 4 -80 0z"/>
<path d="M5475 4060 c-22 -10 -59 -38 -82 -63 -49 -51 -120 -186 -139 -261 -7
-28 -20 -78 -30 -111 -12 -46 -15 -81 -10 -150 6 -99 50 -373 61 -383 14 -14
-3 256 -22 345 l-20 93 35 -5 c53 -6 70 -30 82 -115 21 -148 70 -252 176 -369
69 -77 169 -123 279 -128 l80 -4 -23 20 c-12 11 -44 27 -70 37 -26 9 -60 27
-77 39 -16 12 -43 29 -60 38 -75 39 -210 212 -246 315 -6 17 -15 32 -19 32 -5
0 -11 13 -15 30 -4 16 -11 32 -16 35 -11 7 -12 45 -1 45 10 0 163 -157 237
-243 64 -76 177 -167 206 -167 30 0 22 15 -16 33 -19 9 -35 22 -35 29 0 12
-127 126 -142 128 -7 1 -28 22 -136 136 -36 38 -46 83 -29 123 18 43 75 94
201 178 43 30 45 33 22 33 -14 0 -56 -16 -93 -35 -60 -31 -103 -44 -103 -30 0
21 49 78 131 150 49 43 14 46 -48 4 -60 -41 -109 -92 -159 -166 -22 -32 -49
-68 -60 -82 -20 -22 -22 -22 -27 -5 -3 11 -5 42 -3 71 2 55 -1 49 153 268 100
142 104 172 18 135z"/>
<path d="M1376 3975 c-17 -13 -16 -15 20 -30 21 -9 59 -17 84 -19 46 -4 99
-23 112 -41 4 -5 8 -6 8 -2 0 5 26 -6 57 -24 127 -73 166 -160 113 -253 -52
-94 -47 -87 -108 -135 -24 -18 -41 -35 -38 -38 10 -10 94 43 133 83 49 52 113
146 113 167 0 8 -17 44 -37 81 -34 60 -42 68 -101 96 -35 16 -69 30 -75 30 -5
0 -46 17 -91 39 -69 33 -147 62 -166 61 -3 -1 -13 -7 -24 -15z"/>
<path d="M148 3944 c-5 -4 -8 -14 -8 -22 0 -9 -6 -23 -14 -31 -7 -9 -19 -44
-26 -78 -7 -34 -20 -70 -29 -80 -16 -16 -16 -21 0 -78 9 -33 22 -72 27 -86 6
-15 14 -59 18 -99 l7 -73 17 34 c24 47 40 159 39 276 0 107 -19 249 -31 237z"/>
<path d="M3875 3897 c8 -13 17 -43 19 -65 3 -36 1 -42 -16 -42 -11 0 -39 14
-63 31 -23 17 -74 39 -113 49 -61 16 -84 17 -172 9 -57 -5 -111 -14 -121 -19
-10 -6 -28 -11 -41 -12 -13 0 38 -4 112 -8 118 -7 146 -12 220 -40 96 -37 154
-75 146 -96 -3 -8 -2 -13 2 -11 4 1 31 -24 59 -55 37 -40 54 -68 58 -95 3 -21
8 -46 10 -57 2 -10 -1 -59 -6 -110 -8 -69 -19 -108 -44 -161 -39 -80 -114
-164 -174 -194 -22 -11 -43 -26 -47 -32 -10 -16 19 -31 31 -16 6 6 19 14 30
15 11 2 25 8 31 13 6 5 18 8 25 6 8 -2 11 -2 6 0 -13 8 3 23 24 23 28 0 49 28
109 146 45 87 52 111 57 178 6 80 -13 220 -28 210 -5 -3 -6 2 -3 10 5 12 -21
78 -53 137 -8 14 54 17 81 3 16 -8 31 -14 33 -14 7 0 -12 28 -42 62 -17 18
-52 61 -78 96 -46 59 -85 88 -52 39z"/>
<path d="M3501 3735 c-18 -8 -42 -15 -53 -15 -10 0 -16 -4 -13 -10 3 -5 -3
-10 -15 -10 -12 0 -19 -4 -16 -8 3 -5 -10 -14 -29 -21 -19 -6 -37 -21 -40 -32
-4 -10 -10 -17 -15 -14 -5 3 -11 -4 -15 -15 -3 -11 -11 -20 -17 -20 -6 0 -8
-9 -5 -20 3 -11 2 -18 -3 -15 -9 6 -51 -57 -67 -100 -6 -16 -12 -45 -12 -64
l0 -33 29 38 c38 52 110 110 168 137 35 16 66 22 122 21 66 0 83 -4 137 -33
95 -51 150 -146 124 -214 -15 -40 -14 -44 8 -21 31 34 41 61 41 114 0 63 -32
129 -89 185 -40 38 -45 40 -117 43 -70 4 -80 2 -152 -33 -42 -21 -93 -51 -112
-66 -34 -29 -60 -37 -60 -20 0 5 20 34 45 64 74 91 178 141 280 136 22 -1 51
-1 65 0 22 2 21 4 -15 21 -48 23 -126 25 -174 5z"/>
<path d="M6320 3596 c0 -78 1 -68 -11 -108 -12 -38 -19 -64 -26 -95 -3 -13 3
-40 12 -60 15 -30 31 -160 34 -265 1 -10 7 -18 14 -18 8 0 22 -9 32 -20 41
-45 43 -25 10 125 -16 69 -16 92 -6 170 6 50 16 113 22 140 11 48 10 53 -20
103 -17 29 -31 55 -31 58 0 3 -7 12 -15 20 -13 14 -15 8 -15 -50z"/>
<path d="M3445 3461 c-49 -30 -68 -58 -73 -109 -3 -34 1 -59 12 -81 22 -41
150 -126 210 -139 61 -13 148 3 197 35 49 32 43 42 -11 18 -76 -34 -217 -3
-278 63 -23 24 -31 40 -46 90 -9 28 14 30 39 2 10 -11 22 -20 26 -20 4 0 27
-13 51 -29 47 -31 130 -63 93 -36 -34 25 -75 68 -75 78 0 6 8 3 18 -6 10 -10
26 -17 36 -17 9 0 15 -4 12 -9 -8 -12 46 -11 62 1 19 16 14 62 -10 93 -12 15
-49 40 -82 56 -72 34 -137 38 -181 10z"/>
<path d="M4647 3201 c-5 -39 -14 -52 -61 -93 -50 -45 -57 -56 -83 -136 -15
-48 -44 -114 -65 -147 -21 -33 -41 -67 -46 -76 -27 -60 -151 -161 -244 -201
-40 -16 -82 -34 -93 -39 -14 -6 -6 -7 25 -4 25 2 115 7 200 10 85 3 256 10
380 15 124 5 299 10 390 10 162 0 235 11 151 23 -71 9 -204 81 -268 145 -184
182 -241 279 -267 452 -12 82 -13 84 -19 41z"/>
<path d="M2641 3147 c-2 -37 -69 -163 -116 -222 -65 -79 -207 -260 -242 -308
-15 -21 -37 -47 -47 -57 -11 -11 -17 -22 -14 -26 4 -3 82 2 175 11 130 14 220
16 398 12 127 -3 242 -10 256 -15 14 -6 68 -13 120 -16 l94 -6 -65 19 c-36 10
-83 27 -105 39 -36 18 -64 21 -265 27 -124 4 -236 8 -250 10 -14 2 -40 4 -59
4 -29 1 -32 3 -21 16 9 11 9 19 2 28 -8 10 -1 26 28 65 22 29 40 56 40 60 0 4
21 25 46 46 25 21 49 49 54 62 5 13 17 24 26 24 11 0 14 5 9 18 -8 19 -18 54
-36 122 -23 94 -27 105 -28 87z"/>
<path d="M5397 2730 c8 -17 29 -46 47 -65 l33 -34 -21 -19 c-12 -11 -43 -28
-71 -38 l-50 -19 85 -7 c47 -3 153 -6 235 -7 133 0 147 1 125 14 -14 7 -54 21
-89 30 -88 23 -187 74 -248 129 -28 25 -53 46 -56 46 -3 0 1 -14 10 -30z"/>
</g>
</svg>
